#!OML:ASF F:\VICON\USERDATA\INSTALL\rory3\rory3.ASF
:FULLY-SPECIFIED
:DEGREES
97
root 13.7938 18.2147 -5.88739 -2.61578 6.54476 -1.87686
lowerback 10.077 0.0383081 0.0200181
upperback 0.743651 0.134987 1.54025
thorax -4.88201 0.0828927 1.57536
lowerneck -21.703 -6.75683 -13.4804
upperneck 26.9092 -8.06799 10.2602
head 13.7788 -3.56191 4.87849
rclavicle -1.13432e-014 -1.55052e-014
rhumerus -37.5556 -16.5682 -77.7566
rradius 27.5745
rwrist 7.75134
rhand -13.148 10.2143
rfingers 7.12502
rthumb 12.9505 -19.3638
lclavicle -1.13432e-014 -1.55052e-014
lhumerus -33.1592 3.8651 83.9515
lradius 32.6735
lwrist -8.73408
lhand -17.7798 28.9331
lfingers 7.12502
lthumb 8.48283 58.7427
rfemur -5.83441 -2.96165 28.0778
rtibia 16.7867
rfoot -5.76265 1.47891
rtoes 8.25844
lfemur -5.57635 -1.27827 -16.8167
ltibia 57.2973
lfoot 10.6706 -12.3838
ltoes -9.6925
98
root 13.7965 18.2075 -5.76711 -2.73631 6.45267 -1.9792
lowerback 10.2387 0.103839 0.131485
upperback 0.746358 0.237005 1.55206
thorax -4.97209 0.131292 1.51082
lowerneck -21.6285 -6.76122 -13.2569
upperneck 26.8225 -8.05419 9.93591
head 13.6948 -3.57588 4.70531
rclavicle -2.49723e-015 5.56597e-015
rhumerus -37.2047 -16.5993 -77.766
rradius 27.4812
rwrist 7.99061
rhand -13.4454 10.9429
rfingers 7.12502
rthumb 12.6638 -18.6532
lclavicle -2.49723e-015 5.56597e-015
lhumerus -33.6875 4.00202 83.8951
lradius 33.0414
lwrist -8.32846
lhand -17.4353 28.3739
lfingers 7.12502
lthumb 8.81531 58.1697
rfemur -5.20011 -2.94262 28.2209
rtibia 16.6067
rfoot -6.04392 1.47161
rtoes 8.3276
lfemur -6.65897 -0.949589 -16.5657
ltibia 58.3744
lfoot 9.47578 -11.3361
ltoes -11.7726
99
root 13.7977 18.205 -5.64392 -2.82801 6.363 -2.0549
lowerback 10.2935 0.152899 0.198957
upperback 0.780812 0.309979 1.54974
thorax -4.96812 0.165708 1.4598
lowerneck -21.4816 -6.76557 -12.9523
upperneck 26.5869 -8.04794 9.54779
head 13.5271 -3.59409 4.48738
rclavicle -3.90115e-015 1.74931e-014
rhumerus -36.8305 -16.4603 -77.9212
rradius 27.5897
rwrist 7.82886
rhand -13.8581 11.0021
rfingers 7.12502
rthumb 12.2659 -18.6182
lclavicle -3.90115e-015 1.74931e-014
lhumerus -34.2969 4.35811 83.7933
lradius 33.5621
lwrist -7.94117
lhand -17.407 27.2463
lfingers 7.12502
lthumb 8.8426 57.041
rfemur -4.73388 -2.84114 28.3549
rtibia 16.6593
rfoot -6.48621 1.34489
rtoes 8.2183
lfemur -7.69808 -0.735602 -16.361
ltibia 59.2729
lfoot 8.42823 -10.1533
ltoes -11.062
100
root 13.8005 18.2023 -5.51586 -2.87285 6.26757 -2.02969
lowerback 10.2136 0.215683 0.187831
upperback 0.850474 0.38783 1.50302
thorax -4.85212 0.203397 1.40585
lowerneck -21.6531 -6.83666 -13.3011
upperneck 26.7332 -8.14886 9.97126
head 13.6809 -3.61546 4.70496
rclavicle 6.59717e-015 1.41137e-014
rhumerus -36.3683 -16.4248 -78.0221
rradius 27.5829
rwrist 7.8956
rhand -14.1738 10.4157
rfingers 7.12502
rthumb 11.9616 -19.2226
lclavicle 6.59717e-015 1.41137e-014
lhumerus -34.9178 4.68336 83.6689
lradius 34.1879
lwrist -7.34832
lhand -18.0289 27.7376
lfingers 7.12502
lthumb 8.24243 57.5568
rfemur -4.37597 -2.80834 28.3693
rtibia 16.8222
rfoot -6.99613 1.29965
rtoes 8.21491
lfemur -8.61601 -0.548859 -16.2928
ltibia 59.9666
lfoot 6.98864 -9.14483
ltoes -9.90238
101
root 13.8019 18.1926 -5.38645 -2.9423 6.24777 -2.05921
lowerback 10.1164 0.278948 0.225273
upperback 0.936761 0.471406 1.45382
thorax -4.70878 0.242917 1.32147
lowerneck -21.9044 -6.93212 -13.6505
upperneck 26.9714 -8.30257 10.4577
head 13.9048 -3.65018 4.94396
rclavicle -1.2424e-015 1.59028e-015
rhumerus -35.948 -16.6218 -78.0717
rradius 27.6288
rwrist 8.04731
rhand -14.1336 9.96973
rfingers 7.12502
rthumb 12.0003 -19.6663
lclavicle -1.2424e-015 1.59028e-015
lhumerus -35.1928 4.87561 83.5064
lradius 34.2841
lwrist -6.76824
lhand -18.5497 28.1856
lfingers 7.12502
lthumb 7.73979 58.0239
rfemur -3.9713 -2.76393 28.4444
rtibia 17.0597
rfoot -7.48139 1.16664
rtoes 8.18818
lfemur -9.53271 -0.370259 -16.1559
ltibia 60.4722
lfoot 5.636 -8.561
ltoes -10.58
102
root 13.805 18.1857 -5.26104 -3.00212 6.2562 -2.14455
lowerback 10.0914 0.307117 0.354257
upperback 0.971936 0.520983 1.42299
thorax -4.65771 0.264463 1.20966
lowerneck -21.9318 -6.97103 -13.6667
upperneck 26.9905 -8.35905 10.4815
head 13.93 -3.67252 4.94584
rclavicle -4.34841e-016 -7.95139e-016
rhumerus -35.6111 -16.8639 -78.0861
rradius 27.7824
rwrist 8.25724
rhand -14.054 9.93552
rfingers 7.12502
rthumb 12.077 -19.696
lclavicle -4.34841e-016 -7.95139e-016
lhumerus -35.348 5.00003 83.3984
lradius 34.0767
lwrist -5.96673
lhand -18.7217 28.0972
lfingers 7.12502
lthumb 7.57382 57.9416
rfemur -3.56737 -2.76835 28.5683
rtibia 17.3225
rfoot -7.84912 1.18984
rtoes 8.49557
lfemur -10.5848 -0.242957 -16.001
ltibia 60.8058
lfoot 4.46852 -8.39231
ltoes -12.1344
103
root 13.8136 18.1755 -5.13264 -3.12479 6.00527 -2.19242
lowerback 10.2053 0.403366 0.487388
upperback 0.938057 0.662975 1.36843
thorax -4.75722 0.331522 1.0574
lowerneck -21.8787 -6.98663 -13.6158
upperneck 27.0681 -8.37871 10.3707
head 13.9459 -3.69236 4.89037
rclavicle 5.85794e-015 -1.35174e-014
rhumerus -35.4068 -16.7347 -78.1936
rradius 28.015
rwrist 7.84262
rhand -14.1409 9.79213
rfingers 7.12502
rthumb 11.9932 -19.8443
lclavicle 5.85794e-015 -1.35174e-014
lhumerus -35.5958 5.28032 83.2012
lradius 33.7373
lwrist -5.34869
lhand -18.6646 28.3996
lfingers 7.12502
lthumb 7.6289 58.242
rfemur -3.07166 -2.69471 28.6351
rtibia 17.5413
rfoot -8.19028 1.35978
rtoes 8.68418
lfemur -11.4213 0.0584328 -15.931
ltibia 61.0081
lfoot 2.56605 -8.53569
ltoes -15.5657
104
root 13.8227 18.1645 -5.004 -3.20097 5.44882 -2.3982
lowerback 10.2931 0.641309 0.769329
upperback 0.855332 1.01279 1.34984
thorax -4.89299 0.498063 0.82852
lowerneck -21.714 -7.0637 -13.669
upperneck 27.1506 -8.51884 10.4176
head 13.9744 -3.75791 4.89602
rclavicle 1.11754e-014 1.68967e-014
rhumerus -35.3498 -16.4595 -78.3499
rradius 28.4617
rwrist 6.95917
rhand -14.1505 9.37127
rfingers 7.12502
rthumb 11.984 -20.2657
lclavicle 1.11754e-014 1.68967e-014
lhumerus -35.7577 5.71087 82.8922
lradius 33.1549
lwrist -5.11451
lhand -18.5962 27.9604
lfingers 7.12502
lthumb 7.69494 57.8004
rfemur -2.60728 -2.3407 28.9013
rtibia 17.7078
rfoot -8.65242 1.3187
rtoes 7.91264
lfemur -12.2561 0.648957 -15.641
ltibia 61.1743
lfoot 2.20358 -7.67832
ltoes -13.9721
105
root 13.8294 18.1625 -4.88559 -3.11165 4.99309 -2.50872
lowerback 10.3435 0.839131 0.961344
upperback 0.731452 1.29767 1.29322
thorax -5.04803 0.633259 0.619006
lowerneck -21.4719 -7.07536 -13.7032
upperneck 27.1288 -8.59269 10.5275
head 13.9339 -3.78613 4.9349
rclavicle 1.59152e-014 7.65321e-015
rhumerus -35.2909 -16.2132 -78.5601
rradius 28.9992
rwrist 6.08734
rhand -14.0845 9.40313
rfingers 7.12502
rthumb 12.0476 -20.2301
lclavicle 1.59152e-014 7.65321e-015
lhumerus -36.0497 6.20573 82.5393
lradius 32.9022
lwrist -5.05112
lhand -18.3852 27.6953
lfingers 7.12502
lthumb 7.89852 57.5277
rfemur -2.35176 -2.06455 29.0652
rtibia 17.9223
rfoot -9.14899 1.23136
rtoes 7.03643
lfemur -13.4092 1.07711 -15.4507
ltibia 61.2739
lfoot 1.62167 -7.17002
ltoes -11.282
106
root 13.8347 18.1521 -4.77587 -3.09926 4.80767 -2.64283
lowerback 10.5323 0.927659 1.18969
upperback 0.637989 1.44381 1.22747
thorax -5.24509 0.698188 0.396837
lowerneck -21.2656 -7.07015 -13.6757
upperneck 26.9964 -8.64474 10.6229
head 13.8459 -3.79858 4.95657
rclavicle -1.66172e-015 3.72721e-015
rhumerus -35.1381 -16.0682 -78.7753
rradius 29.4393
rwrist 5.59011
rhand -14.0566 9.57174
rfingers 7.12502
rthumb 12.0745 -20.0599
lclavicle -1.66172e-015 3.72721e-015
lhumerus -36.3797 6.59301 82.2295
lradius 32.7992
lwrist -5.02326
lhand -18.3991 27.8388
lfingers 7.12502
lthumb 7.88513 57.6717
rfemur -2.08356 -1.92364 29.2497
rtibia 18.1773
rfoot -9.58658 1.08728
rtoes 6.69557
lfemur -14.5436 1.24421 -15.255
ltibia 61.2765
lfoot 0.686819 -6.91923
ltoes -9.80121
107
root 13.8422 18.1314 -4.666 -3.14614 4.75876 -2.7937
lowerback 10.6342 0.956975 1.3975
upperback 0.660447 1.50936 1.22834
thorax -5.27322 0.725416 0.269503
lowerneck -21.2398 -7.10465 -13.7257
upperneck 26.8947 -8.69413 10.6917
head 13.812 -3.81635 4.97997
rclavicle -1.93815e-015 1.41137e-014
rhumerus -34.7075 -15.7465 -78.9916
rradius 29.7255
rwrist 5.11989
rhand -14.1579 9.27803
rfingers 7.12502
rthumb 11.9769 -20.3593
lclavicle -1.93815e-015 1.41137e-014
lhumerus -36.5643 6.95405 82.0417
lradius 32.6233
lwrist -5.02999
lhand -18.5952 27.7782
lfingers 7.12502
lthumb 7.69585 57.6182
rfemur -1.80839 -1.78318 29.4504
rtibia 18.5026
rfoot -10.0883 0.769049
rtoes 6.25565
lfemur -15.4936 1.24305 -15.0982
ltibia 61.107
lfoot -0.345333 -6.56308
ltoes -9.54767
108
root 13.8499 18.1091 -4.5519 -3.13881 4.7305 -2.86947
lowerback 10.5592 1.00651 1.54451
upperback 0.737769 1.5876 1.19723
thorax -5.14495 0.761363 0.14484
lowerneck -21.287 -7.17349 -13.8045
upperneck 26.8277 -8.79091 10.8062
head 13.8205 -3.84976 5.0186
rclavicle -8.51357e-015 -2.48481e-015
rhumerus -34.1227 -15.5508 -79.1969
rradius 29.8653
rwrist 4.70894
rhand -14.2779 8.89001
rfingers 7.12502
rthumb 11.8612 -20.754
lclavicle -8.51357e-015 -2.48481e-015
lhumerus -36.7064 7.15049 81.8824
lradius 32.5901
lwrist -4.95452
lhand -18.6016 27.9746
lfingers 7.12502
lthumb 7.68969 57.8148
rfemur -1.57029 -1.63871 29.5714
rtibia 18.9159
rfoot -10.6124 0.511982
rtoes 6.59746
lfemur -16.428 1.24143 -15.0219
ltibia 60.7543
lfoot -1.20427 -6.19595
ltoes -9.65295
109
root 13.8588 18.0855 -4.44057 -3.1422 4.63807 -2.96084
lowerback 10.6492 1.07474 1.74764
upperback 0.720736 1.70184 1.13977
thorax -5.20468 0.811743 -0.0481951
lowerneck -21.2273 -7.19314 -13.859
upperneck 26.7792 -8.85711 10.9683
head 13.811 -3.86478 5.08123
rclavicle -2.55066e-014 9.98893e-015
rhumerus -33.8004 -15.438 -79.3385
rradius 30.1769
rwrist 4.51402
rhand -14.0939 8.52408
rfingers 7.12502
rthumb 12.0386 -21.1097
lclavicle -2.55066e-014 9.98893e-015
lhumerus -36.9363 7.21284 81.7098
lradius 32.4948
lwrist -4.93497
lhand -18.4936 28.2866
lfingers 7.12502
lthumb 7.79393 58.1229
rfemur -1.31987 -1.4742 29.7051
rtibia 19.3928
rfoot -11.2044 0.322957
rtoes 7.36205
lfemur -17.3343 1.25474 -14.9167
ltibia 60.2501
lfoot -1.90735 -5.96191
ltoes -10.1567
110
root 13.8656 18.0598 -4.33342 -3.16617 4.56885 -3.08881
lowerback 10.8616 1.11902 1.94084
upperback 0.705913 1.78807 1.10342
thorax -5.331 0.847851 -0.212478
lowerneck -21.2794 -7.25401 -14.0063
upperneck 26.7657 -8.96069 11.2017
head 13.8564 -3.8935 5.18256
rclavicle 1.10954e-014 -1.87603e-015
rhumerus -33.5325 -15.1332 -79.5994
rradius 30.6532
rwrist 4.07314
rhand -14.086 8.52016
rfingers 7.12502
rthumb 12.0462 -21.1131
lclavicle 1.10954e-014 -1.87603e-015
lhumerus -37.0327 7.38146 81.5082
lradius 32.1505
lwrist -5.10217
lhand -18.571 28.0644
lfingers 7.12502
lthumb 7.71925 57.9035
rfemur -1.10466 -1.35849 29.8848
rtibia 19.8822
rfoot -11.8022 0.104106
rtoes 7.29204
lfemur -18.1987 1.30543 -14.782
ltibia 59.5936
lfoot -2.56084 -5.70525
ltoes -10.9237
111
root 13.8731 18.0374 -4.22514 -3.14079 4.56979 -3.1877
lowerback 10.9952 1.13238 2.07571
upperback 0.70879 1.82553 1.09194
thorax -5.39759 0.862151 -0.308997
lowerneck -21.3438 -7.32247 -14.1075
upperneck 26.7289 -9.0361 11.2775
head 13.8777 -3.92476 5.21408
rclavicle -7.19585e-015 -8.60831e-015
rhumerus -33.1727 -14.6698 -79.8606
rradius 31.0609
rwrist 3.78795
rhand -14.3929 8.67901
rfingers 7.12502
rthumb 11.7502 -20.9714
lclavicle -7.19585e-015 -8.60831e-015
lhumerus -37.1364 7.65492 81.3415
lradius 31.8855
lwrist -5.32125
lhand -18.5195 27.8391
lfingers 7.12502
lthumb 7.7689 57.6764
rfemur -0.955731 -1.23325 30.0397
rtibia 20.3527
rfoot -12.3848 -0.203398
rtoes 6.97184
lfemur -19.0313 1.27353 -14.6991
ltibia 58.7816
lfoot -3.21248 -5.26049
ltoes -11.6602
